<svg width="170px" height="24px" viewBox="0 0 170 24" version="1.1" xmlns="http://www.w3.org/2000/svg" xmlns:xlink="http://www.w3.org/1999/xlink">
    <!-- Generator: Sketch 50.2 (55047) - http://www.bohemiancoding.com/sketch -->
    <desc>Created with Sketch.</desc>
    <defs>
        <polygon id="path-1" points="0.000180480412 0.0472972973 12.9723801 0.0472972973 12.9723801 18.0868022 0.000180480412 18.0868022"></polygon>
        <polygon id="path-3" points="0.0896670342 0.0546409266 51.1345756 0.0546409266 51.1345756 18.7350131 0.0896670342 18.7350131"></polygon>
    </defs>
    <g id="WelcomeAd" stroke="none" stroke-width="1" fill="none" fill-rule="evenodd">
        <g id="WelcomeAd-Sample" transform="translate(-927.000000, -409.000000)">
            <g id="NYT-Logo" transform="translate(927.000000, 409.000000)">
                <g id="Group-3">
                    <mask id="mask-2" fill="white">
                        <use xlink:href="#path-1"></use>
                    </mask>
                    <g id="Clip-2"></g>
                    <path d="M4.88871224,13.2205405 L4.88871224,6.83256757 L2.95039746,7.69054054 C2.95039746,7.69054054 2.45341812,8.78689189 2.54022258,10.3817568 C2.60890302,11.62 3.30620032,13.1108108 3.84801272,13.7304054 L4.88871224,13.2205405 Z M10.5577107,0.0690540541 C11.0356121,0.106891892 11.7882353,0.346216216 12.3538951,0.837162162 C12.9538951,1.41135135 13.0893482,2.28918919 12.8804452,3.08851351 C12.6925278,3.79986486 12.4826709,4.16689189 11.7529412,4.65594595 C11.0136725,5.1572973 10.1189189,5.11283784 10.1189189,5.11283784 L10.1189189,8.19 L11.6308426,9.40459459 L10.1189189,10.6116216 L10.1189189,14.8087838 C10.1189189,14.8087838 11.6327504,13.9441892 12.572337,12.022973 C12.572337,12.022973 12.6104928,11.9132432 12.6972973,11.7145946 C12.782194,12.232027 12.7316375,13.2791892 12.1449921,14.6167568 C11.7023847,15.6251351 10.8934817,16.6013514 9.88235294,17.1594595 C8.71573927,17.797973 7.73895072,18.0618919 6.80031797,18.0845946 C6.29570747,18.0987838 5.80540541,18.0439189 5.30556439,17.9389189 C3.61621622,17.5917568 2.08044515,16.6543243 1.03497615,15.0131081 C0.299523052,13.8581081 -0.026709062,12.5139189 0.00190779014,11.0656757 C0.0629570747,8.22689189 2.19014308,5.78351351 4.64928458,4.86689189 C4.94594595,4.75716216 5.06995231,4.68243243 5.48871224,4.64648649 C5.29793323,4.77702703 5.0709062,4.94351351 4.79141494,5.12608108 C4.00158983,5.65013514 3.32146264,6.6727027 3.03243243,7.46351351 L7.80476948,5.35310811 L7.80476948,11.9728378 L3.95961844,13.8789189 C4.39650238,14.4890541 5.72623211,15.3962162 6.86899841,15.522027 C8.80254372,15.7358108 9.94149444,14.8958108 9.94149444,14.8958108 L9.94149444,10.6116216 L8.44101749,9.40459459 L9.94149444,8.19283784 L9.94149444,5.11283784 C9.12305246,5.02013514 8.1290938,4.7477027 7.54531002,4.6077027 C6.68966614,4.39675676 3.83751987,3.60121622 3.3872814,3.53878378 C2.94085851,3.47351351 2.38664547,3.49337838 2.0508744,3.78851351 C1.78950715,4.02310811 1.60826709,4.39391892 1.60826709,4.7722973 C1.60826709,4.87635135 1.62066773,4.9822973 1.65405405,5.08824324 C1.73418124,5.35783784 1.91923688,5.51581081 2.06232114,5.66432432 C2.06232114,5.66432432 1.89825119,5.65013514 1.59300477,5.47513514 C1.05786963,5.1572973 0.648648649,4.52445946 0.6,3.75067568 C0.53799682,2.74418919 0.956756757,1.82945946 1.8,1.21081081 C2.53354531,0.746351351 3.36152623,0.446486486 4.32686804,0.579864865 C5.73195548,0.780405405 7.61780604,1.57027027 9.30333863,1.97418919 C9.95484897,2.12648649 10.4585056,2.17662162 10.9163752,1.9127027 C11.1300477,1.76418919 11.5077901,1.37067568 11.2025437,0.842837838 C10.8391097,0.230810811 10.1561208,0.248783784 9.57424483,0.134324324 C10.073132,0.0331081081 10.1866455,0.0331081081 10.5577107,0.0690540541 Z" id="Fill-1" fill="#FFFFFF" mask="url(#mask-2)"></path>
                </g>
                <path d="M29.1045538,11.675784 L26.9107895,13.2973785 L26.9107895,7.9044072 L29.1045538,11.675784 Z M29.0389242,6.48648649 C29.0389242,6.48648649 27.5651547,7.39570987 26.564304,7.99503719 C25.575035,8.58656837 24.2392806,9.24923922 24.2392806,9.24923922 L24.2392806,15.52902 L23.3513514,16.2452893 L23.4681334,16.3895176 L24.3367598,15.6820191 L27.0565257,18.1621622 L31.7837838,14.3829893 L31.6698972,14.2436335 L29.0591922,16.3154544 L26.9107895,14.2835887 L26.9107895,13.5273643 L31.228828,10.3231558 L29.0389242,6.48648649 Z" id="Fill-4" fill="#FFFFFF"></path>
                <path d="M16.6938767,20.0006751 C17.2933608,20.1539754 18.3506159,20.2358626 19.6278993,19.5826698 C21.035708,18.8618725 21.7517326,17.3279169 21.7368154,15.7568263 L21.7992811,13.5334952 L21.7992811,8.66787551 L22.7027027,7.96421739 L22.5973501,7.82615186 L21.709778,8.51552734 L19.6568013,6.17888726 L17.0276486,8.49077076 L17.0276486,0.648648649 L13.7412077,3.24332844 C13.8857178,3.34330693 14.352812,3.42519407 14.3677292,4.09838255 L14.3677292,15.0798292 L12.972973,16.1329359 L13.0690023,16.2776667 L13.7412077,15.7682525 L15.6123813,17.5469174 L18.5566594,15.1521945 L18.4531715,15.0112725 L17.7613873,15.5759129 L17.0276486,14.8322634 L17.0351072,8.71262778 L17.8919126,7.96421739 L19.1729253,9.59243847 C19.1729253,9.59243847 19.169196,13.5496822 19.1738576,14.8684461 C19.1636021,16.2671927 19.1608051,18.021101 18.4382543,18.864729 C17.7157034,19.7150223 17.4266831,19.7750094 16.6938767,20.0006751" id="Fill-5" fill="#FFFFFF"></path>
                <path d="M37.6704875,19.4066826 C36.4782202,19.2683754 35.9773548,18.5495542 35.9924468,17.9812715 C36.000936,17.6152748 36.3329598,16.9030397 37.0536024,16.8051897 C37.7799045,16.7082806 38.5165823,17.0469921 39.1428999,17.7789854 L41.8924721,14.7465761 L41.7604172,14.6233228 L41.0237393,15.4475209 C40.2719695,14.6016829 39.2070409,14.0616261 38.1439988,13.9073242 L38.1439988,4.6689666 L45.2928864,17.655732 C45.2928864,17.655732 45.3626868,17.7987436 45.6560374,17.7987436 C45.9097715,17.8015662 45.8465738,17.5917532 45.8465738,17.5917532 L45.8446873,4.52971852 C46.4257289,4.50807861 47.3152132,4.18253918 47.7443917,3.74785935 C49.1196494,2.33562035 48.5584159,0.801068847 48.4056095,0.648648649 C48.3235468,1.32513089 47.8057029,1.9969088 46.9379134,2.00161313 C45.8041276,2.00349486 45.1108392,1.16800636 45.1108392,1.16800636 L42.3631536,4.29262043 L42.4942652,4.41305121 L43.2790488,3.51734732 C44.2411632,4.39987909 44.9467138,4.48267525 45.6739591,4.52971852 L45.6739591,12.1112121 L40.3691242,2.5030944 C39.8908967,1.71464917 39.1636514,1.01652703 38.0166601,1.00711837 C36.6998839,0.998650586 35.7585209,2.15403333 35.6443877,3.14852808 C35.5161058,4.27850745 35.660423,4.5410089 35.660423,4.5410089 C35.660423,4.5410089 35.8519026,3.28024924 36.6319699,3.29812568 C37.3271447,3.30753433 37.6902958,3.94544109 37.9732706,4.42716419 L37.9732706,7.21306671 C37.2516848,7.26669603 35.3765049,7.34290613 35.2595419,9.28955669 C35.2519959,10.0121413 35.7028692,10.7742423 36.095261,11.0310986 C36.6036724,11.3651058 37.0017237,11.3556972 37.0017237,11.3556972 C37.0017237,11.3556972 36.3923845,11.0310986 36.5725452,10.3931918 C36.7385571,9.82679085 37.9308244,9.73270431 37.9732706,9.9698024 L37.9732706,13.8941521 C37.3969452,13.8866252 35.5604385,13.9515449 34.7369817,15.5265536 C34.2342298,16.4664781 34.265357,17.5305969 34.7973497,18.2785849 C35.2321877,18.8929701 36.1311044,19.6701249 37.6704875,19.4066826" id="Fill-6" fill="#FFFFFF"></path>
                <path d="M52.4523077,11.675784 L50.2614767,13.2973785 L50.2614767,7.9044072 L52.4523077,11.675784 Z M52.3924964,6.48648649 C52.3924964,6.48648649 50.9097543,7.39570987 49.9170792,7.99503719 C48.9224747,8.58656837 47.592155,9.24923922 47.592155,9.24923922 L47.592155,15.52902 L46.7027027,16.2452893 L46.8223254,16.3895176 L47.6886249,15.6820191 L50.4042521,18.1621622 L55.1351351,14.3829893 L55.0222654,14.2436335 L52.4088963,16.3154544 L50.2614767,14.2835887 L50.2614767,13.5273643 L54.5765745,10.3231558 L52.3924964,6.48648649 Z" id="Fill-7" fill="#FFFFFF"></path>
                <path d="M58.7915774,17.5021274 L56.4861673,15.6072835 L55.4712492,16.3293547 L55.3713897,16.192721 L56.3987903,15.4488264 L56.3987903,10.1523725 C56.4496802,7.97382392 54.3785559,8.51276799 54.4908978,6.19568803 C54.5408276,5.18421905 55.5375021,4.41375675 56.0425607,4.16326162 C56.5773851,3.89189189 57.1602189,3.89189189 57.1602189,3.89189189 C57.1602189,3.89189189 56.2163547,4.47732938 56.4448793,5.31515968 C56.7963079,6.60938453 59.0316243,6.72229711 59.0729123,8.44539998 L59.0729123,14.4534878 L60.7301959,15.7590987 L61.1622802,15.4194122 L61.1622802,8.91982258 L60.2712263,8.04308962 L62.5660743,6.04671933 L64.6612033,7.87419518 L63.8594468,8.73195123 L63.8594468,14.4942881 L65.8230301,16.0949899 L66.1725383,15.8767556 L66.1725383,8.93785064 L65.2766834,8.11330417 L67.5801731,6.03533319 L69.7242717,7.78785026 L70.5836395,7.03826256 L70.7027027,7.17394742 L68.7688852,8.84771035 L68.7688852,14.50093 L63.8277606,17.5135135 L61.2967065,15.537069 L58.7915774,17.5021274" id="Fill-8" fill="#FFFFFF"></path>
                <path d="M158.832967,11.675784 L156.639705,13.2973785 L156.639705,7.9044072 L158.832967,11.675784 Z M158.768317,6.48648649 C158.768317,6.48648649 157.29006,7.39570987 156.295228,7.99503719 C155.305221,8.58656837 153.972667,9.24923922 153.972667,9.24923922 L153.972667,15.52902 L153.081081,16.2452893 L153.201696,16.3895176 L154.069159,15.6820191 L156.783478,18.1621622 L161.513514,14.3829893 L161.401583,14.2436335 L158.787616,16.3154544 L156.639705,14.2835887 L156.639705,13.5273643 L160.95772,10.3231558 L158.768317,6.48648649 Z" id="Fill-9" fill="#FFFFFF"></path>
                <polyline id="Fill-10" fill="#FFFFFF" points="136.864865 9.11003569 136.978426 9.24229079 137.870559 8.47129257 139.185179 9.98879732 139.185179 15.2074854 138.548079 15.7982248 140.602775 18.1621622 142.710402 16.0499993 141.840404 15.13499 141.840404 8.82299316 142.362018 8.39683785 143.822921 10.1318288 143.822921 15.3338625 143.27436 15.8883542 145.214532 18.1033821 147.277889 15.9980769 146.517604 15.1869124 146.500281 8.84650517 147.053653 8.38900051 148.577111 10.0936217 148.577111 15.2633264 148.074745 15.7747128 150.213169 18.1455078 153.081081 15.4475039 152.962708 15.3152488 152.263052 15.9706463 151.195765 14.7627164 151.195765 8.85532218 152.22167 8.06081194 152.119657 7.91582117 151.083166 8.71522975 149.134333 6.48648649 146.344374 8.73188409 144.389767 6.56779888 141.699896 8.71131108 139.727965 6.57465655 136.864865 9.11003569"></polyline>
                <polyline id="Fill-11" fill="#FFFFFF" points="131.027027 8.90951683 131.148763 9.04549819 131.926465 8.38431342 133.160927 9.80522019 133.160927 15.8061371 132.297709 16.5471371 132.414414 16.6821331 133.325925 15.9224111 135.303883 18.1621622 138.162162 15.660302 138.038414 15.5223499 137.20236 16.2485693 136.017195 14.9143753 136.017195 9.04845431 137.013216 8.2039903 136.894499 8.06308207 135.944757 8.86517507 133.862167 6.48648649 131.027027 8.90951683"></polyline>
                <g id="Group-16" transform="translate(118.054054, 0.000000)">
                    <mask id="mask-4" fill="white">
                        <use xlink:href="#path-3"></use>
                    </mask>
                    <g id="Clip-13"></g>
                    <polyline id="Fill-12" fill="#FFFFFF" mask="url(#mask-4)" points="13.3734227 4.17166456 15.4137937 2.31349683 17.0693329 4.14223012 15.0241991 5.99280185 13.3734227 4.17166456"></polyline>
                    <path d="M4.96617947,13.277351 L4.96617947,6.86539058 L3.03344704,7.72658533 C3.03344704,7.72658533 2.54002397,8.82705359 2.62861151,10.4279073 C2.69433775,11.6708003 3.39637018,13.1672093 3.93456329,13.7891305 L4.96617947,13.277351 Z M10.6348294,0.0764793822 C11.1111065,0.114459305 11.8588615,0.354682317 12.4218211,0.847471815 C13.0247879,1.42381714 13.1648133,2.30495135 12.9504886,3.10727722 C12.7609303,3.82129977 12.5570838,4.18970502 11.8274272,4.68059552 C11.0863401,5.1838295 10.1947494,5.13920309 10.1947494,5.13920309 L10.1947494,8.22792031 L11.7045478,9.44707583 L10.1947494,10.6586354 L10.1947494,14.8715583 C10.1947494,14.8715583 11.7074054,14.0037171 12.6428136,12.0752865 C12.6428136,12.0752865 12.6837735,11.9651447 12.7704559,11.7657501 C12.8523755,12.2851256 12.8066529,13.3362199 12.2170219,14.6788102 C11.7750368,15.6909751 10.9701285,16.6708571 9.95851594,17.231061 C8.16771408,18.2137915 6.82366013,18.3106403 5.38530331,18.0134474 C3.69642475,17.6649816 2.16757528,16.724029 1.12548101,15.0766499 C0.388204071,13.9173127 0.0586203234,12.568076 0.0919597198,11.1143944 C0.148160417,8.26495073 2.27711901,5.81239722 4.73756647,4.89233359 C5.02904805,4.78219181 5.15192754,4.70718147 5.57105138,4.67110054 C5.37577777,4.80213127 5.15669031,4.96924293 4.87568682,5.15249606 C4.08601941,5.67851799 3.40589572,6.70492541 3.11822436,7.49870579 L7.88385293,5.3803756 L7.88385293,12.0249631 L4.04124936,13.9382017 C4.47847173,14.550628 5.80537971,15.4611966 6.94368195,15.5874798 C8.88212972,15.8020664 10.0175743,14.9589121 10.0175743,14.9589121 L10.0175743,10.6586354 L8.51634891,9.44707583 L10.0175743,8.2307688 L10.0175743,5.13920309 C9.19933026,5.04615228 8.20867391,4.77269683 7.62571075,4.63217112 C6.76841198,4.42043305 3.91836987,3.62190517 3.47352707,3.5592383 C3.0258266,3.49372293 2.47239262,3.51366239 2.13899866,3.80990579 C1.80465214,4.11089668 1.59699533,4.6416661 1.73987846,5.11451614 C1.82084556,5.38512309 2.00659363,5.54368927 2.14280887,5.69276046 C2.14280887,5.69276046 1.98277977,5.67851799 1.68748798,5.50286085 C1.14548465,5.1838295 0.73207613,4.54861529 0.689211192,3.77192587 C0.623484954,2.76165992 1.04641901,1.84349529 1.8865718,1.22252355 C2.61718086,0.75632 3.44685555,0.455329112 4.41084038,0.58920834 C5.80918992,0.790501931 7.6933421,1.58333282 9.37841044,1.98876849 C10.0309101,2.14163768 10.5367163,2.19196108 10.9929898,1.92705112 C11.2063619,1.77797992 11.5778581,1.38298873 11.2739933,0.853168803 C10.9158329,0.238843552 10.2280888,0.256884015 9.65084094,0.141994749 C10.1490268,0.0403984556 10.257618,0.0403984556 10.6348294,0.0764793822 Z" id="Fill-14" fill="#FFFFFF" mask="url(#mask-4)"></path>
                    <path d="M46.3556113,7.73797931 L46.3556113,10.7735246 L47.371034,11.6575073 C47.371034,11.6575073 49.5800072,9.89618842 50.3753899,8.26874873 C50.3753899,8.26874873 49.3847336,9.60944 48.0559205,9.20020633 C46.9357167,8.85933653 46.3556113,7.73797931 46.3556113,7.73797931 Z M43.8932587,15.7906724 C43.8932587,15.7906724 44.8610537,14.2021622 46.518498,14.543032 C48.1054533,14.8715583 48.6588873,16.5464729 48.6588873,16.5464729 L48.6588873,12.6924602 L47.5529719,11.7315682 C46.3365602,12.9497742 44.1647366,14.7167901 43.8932587,15.7906724 Z M45.4754512,18.719874 C45.1630134,18.8148238 43.8246748,18.485348 43.4960436,17.0971818 C43.1902737,15.747945 44.1285396,14.8307299 45.5478453,13.3865433 L43.8703974,11.8559524 L43.8703974,8.93339737 C43.8703974,8.93339737 45.1030025,8.31717313 46.0736552,7.71329236 C47.0404977,7.10941158 48.0330592,6.45900541 48.0330592,6.45900541 C48.0330592,6.45900541 48.7541427,7.36482656 49.5657188,7.2955132 C50.8469042,7.17967444 50.789751,6.17890347 50.7487911,5.94152896 C50.9716888,6.33177266 51.5565571,7.48256432 49.3056716,10.0642496 L51.1345756,11.5331231 L51.1345756,15.3320649 C51.1345756,15.3320649 49.0132374,16.4306341 47.0043006,17.8957097 C47.0043006,17.8957097 45.8840969,16.4942505 44.9058238,17.1674446 C44.2466563,17.6175067 44.5543313,18.3780547 45.4754512,18.719874 Z" id="Fill-15" fill="#FFFFFF" mask="url(#mask-4)"></path>
                </g>
                <path d="M90.2846408,14.5478701 L92.6071201,16.7234257 L92.6071201,10.0658766 L90.2846408,7.84572399 L90.2846408,14.5478701 Z M95.0728813,9.1128591 L95.883876,8.33919895 L96,8.4778373 L95.2067984,9.23307697 L95.2067984,15.3990902 C95.2067984,15.3990902 93.7149801,16.2270423 92.667055,16.8320096 C91.6219394,17.4457024 90.5075239,18.1621622 90.5075239,18.1621622 L87.7617541,15.7636218 L87.0341064,16.4228811 L86.9189189,16.2832732 L87.6765341,15.59299 L87.6765341,8.96452576 L87.6877719,8.96452576 C87.6877719,8.96452576 88.9848017,8.35761943 90.0795509,7.71871963 C91.0563033,7.15350175 92.1529255,6.48648649 92.1529255,6.48648649 L95.0728813,9.1128591 Z" id="Fill-17" fill="#FFFFFF"></path>
                <path d="M101.073348,8.45101182 L102.84589,6.58622844 C102.84589,6.58622844 103.09028,6.8101589 103.319456,6.92359093 C103.447832,6.99204129 103.982257,7.27268776 104.475792,6.99595274 C104.744907,6.84242836 104.781042,6.80526959 105.077734,6.52168953 C105.13479,7.9718593 104.454872,8.98590249 103.616147,9.41029472 C103.269056,9.57946489 102.257262,9.91487166 101.20743,8.59084612 L101.20743,15.2852913 L102.327631,16.2993345 L103.265252,15.5062882 L103.373659,15.6431889 L100.438123,18.1621622 L98.2100834,16.0695369 L97.4093964,16.8537824 L97.2734127,16.7071031 L98.4953638,15.5737607 L98.5048732,9.79655032 L97.5672516,8.52044004 L96.7646627,9.24894744 L96.6486486,9.11693603 L99.4871887,6.48648649 L101.073348,8.45101182" id="Fill-18" fill="#FFFFFF"></path>
                <path d="M108.324324,11.3481296 L111.516602,6.50291749 C111.516602,6.50291749 111.935444,7.02001074 112.67027,7.22104886 C113.669189,7.49264364 114.537452,6.48648649 114.537452,6.48648649 C114.370656,7.78163594 113.739614,9.25945946 112.443243,9.47982817 C111.293282,9.67796671 110.233205,8.75009844 110.233205,8.75009844 L110.02749,9.08451763 L114.455907,16.0667263 L115.345483,15.2567747 L115.459459,15.3901557 L112.416371,18.1621622 L108.324324,11.3481296" id="Fill-19" fill="#FFFFFF"></path>
                <path d="M105.824145,4.68713428 C105.824145,3.68123498 105.393469,3.06150423 104.831171,3.10337793 L108.468206,0.648648649 L108.468206,14.5544388 L109.429242,15.5296307 L110.152197,14.9219968 L110.27027,15.0532011 L107.339738,17.5135135 L105.353789,15.7175971 L104.561151,16.3931594 L104.432432,16.2628857 L105.824145,15.0997274 L105.824145,4.68713428" id="Fill-20" fill="#FFFFFF"></path>
                <path d="M82.8697794,8.74291031 C82.8697794,8.74291031 82.4682197,9.19688774 81.8385666,9.19688774 C81.2175388,9.19688774 80.8006451,8.74291031 80.8006451,8.74291031 L80.8006451,10.6967372 C80.8006451,10.6967372 81.2175388,10.2437176 81.8385666,10.2437176 C82.4682197,10.2437176 82.8697794,10.6766243 82.8697794,10.6766243 L82.8697794,8.74291031 Z M82.8697794,4.54218241 L81.4782171,3.32199834 L80.8006451,3.85068092 L80.8006451,8.44696299 C80.8006451,8.44696299 81.2175388,8.97181454 81.8452752,8.97181454 C82.4730116,8.97181454 82.8697794,8.46707592 82.8697794,8.46707592 L82.8697794,4.54218241 Z M80.8006451,17.5590754 C80.8006451,17.5590754 81.6468913,17.7851064 82.2583353,17.2832411 C82.9330322,16.7219947 82.8697794,15.9366329 82.8697794,15.9366329 L82.8697794,10.9773604 C82.8697794,10.9773604 82.4730116,10.4735796 81.8452752,10.4735796 C81.2175388,10.4735796 80.8006451,10.990769 80.8006451,10.990769 L80.8006451,17.5590754 Z M75.8841751,4.47992812 C75.8841751,3.51833879 75.4874073,2.97816311 74.8491288,2.96188122 C73.9357962,2.94368381 73.7153697,4.23378424 73.7153697,4.23378424 C73.7153697,4.23378424 73.550529,3.23963113 74.386233,2.33454953 C74.8529623,1.82885315 75.7250846,1.12394305 77.0936459,1.44766535 C78.5015005,1.79245834 78.9049769,2.8843028 78.9049769,3.85068092 L78.9049769,17.1692678 C78.9049769,17.1692678 79.4387925,17.2334376 79.8058506,17.3091005 C80.2284945,17.4020031 80.6300541,17.5169341 80.6300541,17.5169341 L80.6300541,1.45724293 L80.8006451,1.45724293 L80.8006451,3.62273445 L83.6997332,1.2972973 L85.8119944,3.17641908 L86.8048721,2.32114092 L86.9189189,2.45810035 L85.8857893,3.34690006 L85.8857893,15.7259261 C85.8330787,16.5352318 85.7027395,17.3579462 84.9408304,17.82629 C83.2387542,18.840556 81.1859123,17.675922 79.3563721,17.4058341 C77.9945195,17.2075781 75.8640492,16.9528144 75.3302336,18.1969425 C75.1519756,18.6078208 75.168268,19.2389835 75.784504,19.6498618 C77.0208093,20.477365 82.5209304,18.26207 84.4118067,19.1412922 C86.132092,19.9438936 86.1273002,21.2119656 85.8627883,22.0777791 C85.4152266,23.7097992 83.3489675,24 83.3489675,24 C83.3489675,24 84.3571793,23.4119364 84.0696664,22.4474738 C83.92591,21.9523128 83.5904783,21.8163111 82.5113467,21.9389041 C80.1527828,22.2003722 77.3332399,23.3477666 75.4375718,22.5566582 C74.4609864,22.1476955 73.7738306,20.9265536 73.8361251,19.7293557 C73.8859607,18.0063486 75.8841751,17.3196359 75.8841751,17.3196359 L75.8841751,10.9438389 C75.8180471,10.6862019 74.7599998,10.7589915 74.5290311,11.2215888 C74.1753903,11.9322454 74.9650923,12.258841 74.9650923,12.258841 C74.9650923,12.258841 74.3105213,12.3517436 73.7556215,11.7205809 C73.4891929,11.4131404 72.9285428,10.3260848 73.6559504,9.32043856 C74.2558939,8.49006212 74.9718009,8.34639837 75.8841751,8.24391823 L75.8841751,4.47992812 Z" id="Fill-21" fill="#FFFFFF"></path>
            </g>
        </g>
    </g>
</svg>
